<svg xmlns="http://www.w3.org/2000/svg" version="1.1" xmlns:xlink="http://www.w3.org/1999/xlink" xmlns:svgjs="http://svgjs.dev/svgjs" width="1500" height="1500" viewBox="0 0 1500 1500"><rect width="1500" height="1500" fill="#000000"></rect><g transform="matrix(0.6666666666666666,0,0,0.6666666666666666,249.39393939393938,556.5063306573089)"><svg viewBox="0 0 396 153" data-background-color="#444444" preserveAspectRatio="xMidYMid meet" height="579" width="1500" xmlns="http://www.w3.org/2000/svg" xmlns:xlink="http://www.w3.org/1999/xlink"><g id="tight-bounds" transform="matrix(1,0,0,1,0.2400000000000091,0.19567722650710095)"><svg viewBox="0 0 395.52 152.6086455469858" height="152.6086455469858" width="395.52"><g><svg viewBox="0 0 395.52 152.6086455469858" height="152.6086455469858" width="395.52"><g transform="matrix(1,0,0,1,0,109.41797987757667)"><svg viewBox="0 0 395.52 43.19066566940913" height="43.19066566940913" width="395.52"><g id="textblocktransform"><svg viewBox="0 0 395.52 43.19066566940913" height="43.19066566940913" width="395.52" id="textblock"><g><svg viewBox="0 0 395.52 43.19066566940913" height="43.19066566940913" width="395.52"><g transform="matrix(1,0,0,1,0,0)"><svg width="395.52" viewBox="1.12 -34.86 391.64 42.769999999999996" height="43.19066566940913" data-palette-color="#ffffff"><path d="M18.46-34.86L13.18 0 6.35 0 1.12-34.86 4.71-34.86 7.4-15.77 8.86-3.13 10.67-3.13 12.08-15.77 14.79-34.86 18.46-34.86ZM25.56-31.69L25.56-28.17 22.41-28.17 22.41-31.69 25.56-31.69ZM25.56-23.75L25.56 0 22.39 0 22.39-23.75 25.56-23.75ZM33.93-19.19L33.93 0 30.78 0 30.78-23.75 33.93-23.75 33.93-21.53 34.61-21.53Q35.25-22.75 36.3-23.41 37.35-24.07 38.91-24.07L38.91-24.07Q41.25-24.07 42.39-22.84 43.53-21.61 43.53-18.58L43.53-18.58Q43.53-17.92 43.48-17.02 43.43-16.11 43.33-15.41L43.33-15.41 40.3-15.41Q40.35-15.65 40.36-16.26 40.38-16.87 40.39-17.48 40.4-18.09 40.4-18.31L40.4-18.31Q40.4-20.12 39.79-20.76 39.18-21.41 37.84-21.41L37.84-21.41Q34.98-21.41 33.93-19.19L33.93-19.19ZM54.75 0.29L54.75 0.29Q50.94 0.29 49.61-0.98 48.28-2.25 48.28-5.13L48.28-5.13 48.28-21.02 45.94-21.02 45.94-23.75 48.36-23.75 48.36-30.49 51.46-30.49 51.46-23.75 56.83-23.75 56.83-21.02 51.43-21.02 51.43-4.79Q51.43-3.44 51.99-2.93 52.56-2.42 54.83-2.42L54.83-2.42Q55.75-2.42 56.25-2.45 56.76-2.49 57.41-2.51L57.41-2.51 57.41 0.1Q56.83 0.2 56.14 0.24 55.46 0.29 54.75 0.29ZM65.3 0.29L65.3 0.29Q62.56 0.29 61.18-0.93 59.8-2.15 59.8-4.96L59.8-4.96 59.8-23.75 62.93-23.75 62.93-4.69Q62.93-3.49 63.69-2.93 64.44-2.37 66.15-2.37L66.15-2.37Q67.89-2.37 69.19-2.95 70.5-3.54 71.11-4.59L71.11-4.59 71.11-23.75 74.28-23.75 74.28 0 71.11 0 71.11-2.25 70.45-2.25Q68.84 0.29 65.3 0.29ZM84.36 0.27L84.36 0.27Q81.38 0.27 79.96-0.9 78.53-2.08 78.28-4.57L78.28-4.57Q78.26-5.05 78.22-5.54 78.19-6.03 78.23-6.49L78.23-6.49Q78.41-8.67 79.6-10.14 80.8-11.62 84.14-12.84L84.14-12.84Q85.51-13.33 87.02-13.72 88.54-14.11 90.03-14.48L90.03-14.48 90.03-18.99Q90.03-20.19 89.12-20.76 88.22-21.34 85.97-21.34L85.97-21.34Q84.02-21.34 83.01-20.85 81.99-20.36 81.9-19.07L81.9-19.07Q81.85-18.46 81.85-17.32 81.85-16.19 81.9-15.41L81.9-15.41 78.84-15.41Q78.8-16.02 78.75-16.99 78.7-17.97 78.77-18.73L78.77-18.73Q78.89-21.56 80.61-22.81 82.34-24.07 86.1-24.07L86.1-24.07Q90.03-24.07 91.55-22.71 93.08-21.34 93.1-18.21L93.1-18.21 93.1 0 90.03 0 90.03-2.25 89.34-2.25Q88.73-1.03 87.6-0.38 86.46 0.27 84.36 0.27ZM85.14-2.37L85.14-2.37Q88.66-2.37 90-4.47L90-4.47 90-11.87Q88.83-11.62 87.6-11.29 86.36-10.96 84.7-10.4L84.7-10.4Q82.73-9.67 82.07-8.72 81.41-7.76 81.31-6.49L81.31-6.49Q81.34-6.13 81.35-5.7 81.36-5.27 81.41-4.81L81.41-4.81Q81.58-3.64 82.58-3 83.58-2.37 85.14-2.37ZM101.35-31.69L101.35 0 98.18 0 98.18-31.69 101.35-31.69ZM132.45-34.86L127.18 0 120.34 0 115.12-34.86 118.71-34.86 121.39-15.77 122.86-3.13 124.66-3.13 126.08-15.77 128.79-34.86 132.45-34.86ZM139.02-19.19L139.02 0 135.87 0 135.87-23.75 139.02-23.75 139.02-21.53 139.7-21.53Q140.33-22.75 141.38-23.41 142.43-24.07 144-24.07L144-24.07Q146.34-24.07 147.48-22.84 148.61-21.61 148.61-18.58L148.61-18.58Q148.61-17.92 148.56-17.02 148.51-16.11 148.42-15.41L148.42-15.41 145.39-15.41Q145.44-15.65 145.45-16.26 145.46-16.87 145.47-17.48 145.49-18.09 145.49-18.31L145.49-18.31Q145.49-20.12 144.87-20.76 144.26-21.41 142.92-21.41L142.92-21.41Q140.07-21.41 139.02-19.19L139.02-19.19ZM159.55 0.29L159.55 0.29Q155.57 0.29 153.93-1.07 152.29-2.44 152.17-5.62L152.17-5.62Q152.03-7.42 151.98-9.63 151.93-11.84 151.98-14.09 152.03-16.33 152.17-18.16L152.17-18.16Q152.29-21.34 153.94-22.71 155.59-24.07 159.55-24.07L159.55-24.07Q163.55-24.07 165.15-22.71 166.75-21.34 166.87-18.16L166.87-18.16Q167.02-16.36 167.06-14.15 167.11-11.94 167.06-9.7 167.02-7.47 166.87-5.62L166.87-5.62Q166.75-2.47 165.15-1.09 163.55 0.29 159.55 0.29ZM159.55-2.44L159.55-2.44Q161.79-2.44 162.74-2.99 163.7-3.54 163.77-4.81L163.77-4.81Q164.01-8.62 164.01-11.89 164.01-15.16 163.77-18.97L163.77-18.97Q163.7-20.26 162.77-20.8 161.84-21.34 159.55-21.34L159.55-21.34Q157.25-21.34 156.31-20.8 155.37-20.26 155.3-18.97L155.3-18.97Q155.08-15.16 155.07-11.88 155.05-8.59 155.3-4.81L155.3-4.81Q155.35-3.54 156.33-2.99 157.32-2.44 159.55-2.44ZM178.49 0.29L178.49 0.29Q174.51 0.29 172.87-1.07 171.24-2.44 171.12-5.62L171.12-5.62Q170.97-7.42 170.92-9.63 170.87-11.84 170.92-14.09 170.97-16.33 171.12-18.16L171.12-18.16Q171.24-21.34 172.89-22.71 174.53-24.07 178.49-24.07L178.49-24.07Q182.49-24.07 184.09-22.71 185.69-21.34 185.81-18.16L185.81-18.16Q185.96-16.36 186.01-14.15 186.06-11.94 186.01-9.7 185.96-7.47 185.81-5.62L185.81-5.62Q185.69-2.47 184.09-1.09 182.49 0.29 178.49 0.29ZM178.49-2.44L178.49-2.44Q180.73-2.44 181.69-2.99 182.64-3.54 182.71-4.81L182.71-4.81Q182.96-8.62 182.96-11.89 182.96-15.16 182.71-18.97L182.71-18.97Q182.64-20.26 181.71-20.8 180.78-21.34 178.49-21.34L178.49-21.34Q176.19-21.34 175.25-20.8 174.31-20.26 174.24-18.97L174.24-18.97Q174.02-15.16 174.01-11.88 174-8.59 174.24-4.81L174.24-4.81Q174.29-3.54 175.28-2.99 176.27-2.44 178.49-2.44ZM193.38-19.19L193.38 0 190.23 0 190.23-23.75 193.38-23.75 193.38-21.53 193.99-21.53Q194.82-22.83 195.93-23.45 197.04-24.07 198.99-24.07L198.99-24.07Q202.92-24.07 203.83-21.34L203.83-21.34 204.49-21.34Q205.29-22.61 206.54-23.34 207.78-24.07 209.74-24.07L209.74-24.07Q212.35-24.07 213.64-22.86 214.94-21.66 214.94-18.82L214.94-18.82 214.94 0 211.81 0 211.81-19.09Q211.76-20.31 211.05-20.86 210.35-21.41 208.71-21.41L208.71-21.41Q205.46-21.41 204.19-19.12L204.19-19.12 204.19 0 201.07 0 201.07-19.09Q201.02-20.31 200.31-20.86 199.6-21.41 198.02-21.41L198.02-21.41Q194.55-21.41 193.38-19.19L193.38-19.19ZM237.66 0L237.66 0 229.12 0 229.12-34.86 237.78-34.86Q242.32-34.86 244.36-33.4 246.4-31.93 246.47-28.54L246.47-28.54Q246.6-24.58 246.63-21.02 246.67-17.46 246.63-13.89 246.6-10.33 246.47-6.35L246.47-6.35Q246.4-2.95 244.35-1.48 242.3 0 237.66 0ZM237.78-31.74L232.51-31.74 232.51-3.13 237.66-3.13Q240.52-3.13 241.79-3.83 243.06-4.54 243.08-5.98L243.08-5.98Q243.45-17.43 243.08-28.93L243.08-28.93Q243.06-30.37 241.8-31.05 240.54-31.74 237.78-31.74L237.78-31.74ZM258.21 0.29L258.21 0.29Q254.19 0.29 252.46-0.98 250.74-2.25 250.62-5.13L250.62-5.13Q250.52-6.93 250.49-9.38 250.45-11.82 250.49-14.28 250.52-16.75 250.62-18.58L250.62-18.58Q250.74-21.53 252.51-22.8 254.28-24.07 258.21-24.07L258.21-24.07Q261.93-24.07 263.59-22.83 265.25-21.58 265.42-18.73L265.42-18.73Q265.47-17.87 265.51-15.75 265.56-13.62 265.37-11.23L265.37-11.23 253.67-11.23Q253.67-9.69 253.7-8.11 253.72-6.52 253.8-4.81L253.8-4.81Q253.82-3.47 254.82-2.95 255.82-2.44 258.12-2.44L258.12-2.44Q260.39-2.44 261.32-2.95 262.24-3.47 262.34-4.81L262.34-4.81Q262.41-6.15 262.34-8.47L262.34-8.47 265.37-8.47Q265.49-7.76 265.48-6.82 265.47-5.88 265.42-5.13L265.42-5.13Q265.25-2.25 263.67-0.98 262.1 0.29 258.21 0.29ZM253.67-13.82L253.67-13.82 262.39-13.82Q262.44-15.48 262.44-16.99 262.44-18.51 262.34-19.07L262.34-19.07Q262.24-20.29 261.29-20.81 260.34-21.34 258.21-21.34L258.21-21.34Q255.85-21.34 254.83-20.81 253.82-20.29 253.8-19.07L253.8-19.07Q253.72-17.65 253.69-16.36 253.65-15.06 253.67-13.82ZM275.03 0.27L275.03 0.27Q272.05 0.27 270.63-0.9 269.2-2.08 268.95-4.57L268.95-4.57Q268.93-5.05 268.89-5.54 268.86-6.03 268.91-6.49L268.91-6.49Q269.08-8.67 270.27-10.14 271.47-11.62 274.81-12.84L274.81-12.84Q276.18-13.33 277.69-13.72 279.21-14.11 280.7-14.48L280.7-14.48 280.7-18.99Q280.7-20.19 279.79-20.76 278.89-21.34 276.64-21.34L276.64-21.34Q274.69-21.34 273.68-20.85 272.67-20.36 272.57-19.07L272.57-19.07Q272.52-18.46 272.52-17.32 272.52-16.19 272.57-15.41L272.57-15.41 269.52-15.41Q269.47-16.02 269.42-16.99 269.37-17.97 269.44-18.73L269.44-18.73Q269.56-21.56 271.29-22.81 273.01-24.07 276.77-24.07L276.77-24.07Q280.7-24.07 282.22-22.71 283.75-21.34 283.77-18.21L283.77-18.21 283.77 0 280.7 0 280.7-2.25 280.01-2.25Q279.4-1.03 278.27-0.38 277.13 0.27 275.03 0.27ZM275.81-2.37L275.81-2.37Q279.33-2.37 280.67-4.47L280.67-4.47 280.67-11.87Q279.5-11.62 278.27-11.29 277.04-10.96 275.38-10.4L275.38-10.4Q273.4-9.67 272.74-8.72 272.08-7.76 271.98-6.49L271.98-6.49Q272.01-6.13 272.02-5.7 272.03-5.27 272.08-4.81L272.08-4.81Q272.25-3.64 273.25-3 274.25-2.37 275.81-2.37ZM292.02-31.69L292.02 0 288.85 0 288.85-31.69 292.02-31.69ZM304.52 0.29L304.52 0.29Q300.49 0.29 298.77-0.98 297.05-2.25 296.93-5.13L296.93-5.13Q296.83-6.93 296.79-9.38 296.76-11.82 296.79-14.28 296.83-16.75 296.93-18.58L296.93-18.58Q297.05-21.53 298.82-22.8 300.59-24.07 304.52-24.07L304.52-24.07Q308.23-24.07 309.89-22.83 311.55-21.58 311.72-18.73L311.72-18.73Q311.77-17.87 311.82-15.75 311.87-13.62 311.67-11.23L311.67-11.23 299.98-11.23Q299.98-9.69 300-8.11 300.03-6.52 300.1-4.81L300.1-4.81Q300.13-3.47 301.13-2.95 302.13-2.44 304.42-2.44L304.42-2.44Q306.69-2.44 307.62-2.95 308.55-3.47 308.65-4.81L308.65-4.81Q308.72-6.15 308.65-8.47L308.65-8.47 311.67-8.47Q311.8-7.76 311.78-6.82 311.77-5.88 311.72-5.13L311.72-5.13Q311.55-2.25 309.98-0.98 308.4 0.29 304.52 0.29ZM299.98-13.82L299.98-13.82 308.7-13.82Q308.74-15.48 308.74-16.99 308.74-18.51 308.65-19.07L308.65-19.07Q308.55-20.29 307.6-20.81 306.64-21.34 304.52-21.34L304.52-21.34Q302.15-21.34 301.14-20.81 300.13-20.29 300.1-19.07L300.1-19.07Q300.03-17.65 299.99-16.36 299.96-15.06 299.98-13.82ZM319.04-19.19L319.04 0 315.89 0 315.89-23.75 319.04-23.75 319.04-21.53 319.73-21.53Q320.36-22.75 321.41-23.41 322.46-24.07 324.02-24.07L324.02-24.07Q326.37-24.07 327.5-22.84 328.64-21.61 328.64-18.58L328.64-18.58Q328.64-17.92 328.59-17.02 328.54-16.11 328.44-15.41L328.44-15.41 325.42-15.41Q325.47-15.65 325.48-16.26 325.49-16.87 325.5-17.48 325.51-18.09 325.51-18.31L325.51-18.31Q325.51-20.12 324.9-20.76 324.29-21.41 322.95-21.41L322.95-21.41Q320.09-21.41 319.04-19.19L319.04-19.19ZM338.91 0.29L338.91 0.29Q334.98 0.29 333.46-0.98 331.93-2.25 331.81-5.13L331.81-5.13Q331.76-5.88 331.75-6.82 331.74-7.76 331.83-8.47L331.83-8.47 334.69-8.47Q334.64-7.35 334.65-6.41 334.67-5.47 334.69-4.81L334.69-4.81Q334.72-3.47 335.63-2.95 336.55-2.44 338.91-2.44L338.91-2.44Q341.33-2.44 342.32-2.95 343.31-3.47 343.38-4.81L343.38-4.81Q343.46-5.64 343.48-6.04 343.5-6.45 343.48-7.2L343.48-7.2Q343.41-8.45 342.82-9.13 342.24-9.81 340.28-10.11L340.28-10.11 337.43-10.77Q335.23-11.23 334.03-11.94 332.84-12.65 332.35-13.78 331.86-14.92 331.76-16.65L331.76-16.65Q331.69-17.53 331.88-18.58L331.88-18.58Q331.93-21.53 333.48-22.8 335.03-24.07 339.13-24.07L339.13-24.07Q343.07-24.07 344.59-22.83 346.12-21.58 346.26-18.73L346.26-18.73Q346.26-17.99 346.25-17.05 346.24-16.11 346.17-15.41L346.17-15.41 343.21-15.41Q343.33-16.26 343.32-17.36 343.31-18.46 343.26-19.07L343.26-19.07Q343.24-20.36 342.37-20.85 341.5-21.34 339.13-21.34L339.13-21.34Q336.74-21.34 335.88-20.85 335.01-20.36 334.91-19.07L334.91-19.07Q334.89-18.46 334.84-18.05 334.79-17.65 334.81-16.94L334.81-16.94Q334.89-16.09 335.07-15.43 335.25-14.77 335.9-14.34 336.55-13.92 338.01-13.7L338.01-13.7 340.75-13.13Q343.72-12.52 345.09-11.24 346.46-9.96 346.46-7.37L346.46-7.37Q346.46-6.84 346.45-6.23 346.43-5.62 346.39-5.05L346.39-5.05Q346.21-2.2 344.59-0.95 342.97 0.29 338.91 0.29ZM353.46-19.19L353.46 0 350.31 0 350.31-31.69 353.46-31.69 353.46-21.53 354.22-21.53Q355.07-22.83 356.21-23.45 357.34-24.07 359.32-24.07L359.32-24.07Q362.08-24.07 363.42-22.86 364.77-21.66 364.77-18.82L364.77-18.82 364.77 0 361.64 0 361.64-19.09Q361.64-20.31 360.87-20.86 360.1-21.41 358.39-21.41L358.39-21.41Q354.73-21.41 353.46-19.19L353.46-19.19ZM372.97-31.69L372.97-28.17 369.82-28.17 369.82-31.69 372.97-31.69ZM372.97-23.75L372.97 0 369.79 0 369.79-23.75 372.97-23.75ZM381.27-2.25L381.27 7.91 378.12 7.91 378.12-23.75 381.27-23.75 381.27-21.53 381.95-21.53Q382.78-22.83 383.94-23.45 385.1-24.07 387.13-24.07L387.13-24.07Q389.91-24.07 391.24-22.86 392.57-21.66 392.64-18.82L392.64-18.82Q392.72-17.58 392.74-15.81 392.76-14.04 392.76-12.07 392.76-10.11 392.74-8.25 392.72-6.4 392.64-4.96L392.64-4.96Q392.57-2.15 391.18-0.93 389.79 0.29 387 0.29L387 0.29Q385.17 0.29 384-0.31 382.83-0.9 381.95-2.25L381.95-2.25 381.27-2.25ZM386.12-2.37L386.12-2.37Q389.42-2.37 389.52-4.69L389.52-4.69Q389.71-8.47 389.68-12.16 389.64-15.84 389.52-19.09L389.52-19.09Q389.47-20.31 388.74-20.86 388-21.41 386.27-21.41L386.27-21.41Q382.54-21.41 381.27-19.19L381.27-19.19 381.27-4.59Q381.92-3.39 383.06-2.88 384.2-2.37 386.12-2.37Z" opacity="1" transform="matrix(1,0,0,1,0,0)" fill="#ffffff" class="wordmark-text-0" data-fill-palette-color="primary" id="text-0"></path></svg></g></svg></g></svg></g></svg></g><g transform="matrix(1,0,0,1,148.14914985549737,0)"><svg viewBox="0 0 99.22170028900524 99.22170028900524" height="99.22170028900524" width="99.22170028900524"><g><svg></svg></g><g id="icon-0"><svg viewBox="0 0 99.22170028900524 99.22170028900524" height="99.22170028900524" width="99.22170028900524"><g><rect width="90.21824970722513" height="90.21824970722513" x="4.501725290890057" y="4.501725290890057" fill="#ffffff" data-fill-palette-color="accent"></rect><rect width="90.21824970722513" height="90.21824970722513" x="5.329070518200751e-15" y="9.00345058178011" fill="#ffffff" opacity="0.5" data-fill-palette-color="accent"></rect></g><g transform="matrix(1,0,0,1,12.862072259685867,32.64839710893969)"><svg viewBox="0 0 73.49755576963351 33.92490607112587" height="33.92490607112587" width="73.49755576963351"><g><svg xmlns="http://www.w3.org/2000/svg" xmlns:xlink="http://www.w3.org/1999/xlink" version="1.1" x="0" y="0" viewBox="5.000300192633543 29.23051729350553 89.99869997155946 41.54148272125346" enable-background="new 0 0 100 100" xml:space="preserve" height="33.92490607112587" width="73.49755576963351" class="icon-dxe-0" data-fill-palette-color="quaternary" id="dxe-0"><g fill="#444444" data-fill-palette-color="quaternary"><path fill="#000000" d="M24.039 53.462A8.654 8.654 0 1 0 24.039 70.77 8.654 8.654 0 0 0 24.039 53.462M24.039 65.578A3.463 3.463 0 0 1 24.039 58.655 3.464 3.464 0 0 1 27.501 62.116 3.465 3.465 0 0 1 24.039 65.578" data-fill-palette-color="quaternary"></path><path fill="#000000" d="M75.964 53.462A8.655 8.655 0 1 0 75.965 70.772 8.655 8.655 0 0 0 75.964 53.461M75.964 65.578A3.462 3.462 0 1 1 75.966 58.654 3.462 3.462 0 0 1 75.964 65.578" data-fill-palette-color="quaternary"></path><path fill="#000000" d="M86.924 46.853C83.371 45.055 79.135 44.636 75.674 42.787 74.359 42.084 73.149 40.994 71.898 40.174 67.064 37.011 61.946 34.199 56.55 32.116 52.311 30.482 49.914 29.342 43.21 29.234 28.508 28.997 5.636 40.899 5.044 51.778 4.462 62.44 9.841 64.861 12.39 65.414A12 12 0 0 1 11.92 62.116C11.92 55.436 17.355 50 24.036 50 30.719 50 36.151 55.436 36.151 62.116 36.151 63.949 35.732 65.676 35.002 67.234L35.966 67.309H65.031A12.05 12.05 0 0 1 63.844 62.116C63.844 55.436 69.281 50 75.96 50 82.644 50 88.076 55.436 88.076 62.116 88.076 63.977 87.642 65.733 86.892 67.309H87.862S94.999 64.828 94.999 55.984C95 51.545 90.433 48.626 86.924 46.853M32.849 43.087C22.836 43.078 14.976 43.073 14.976 43.073S17.251 41.44 17.826 41.062A53.5 53.5 0 0 1 28.154 35.793C30.632 34.853 33.228 34.038 35.868 33.477zM36.477 43.088L39.688 32.87A30 30 0 0 1 42.778 32.691L43.153 32.694C51.104 32.756 59.684 37.861 65.387 43.11 57.665 43.104 46.401 43.097 36.477 43.088" data-fill-palette-color="quaternary"></path></g></svg></g></svg></g></svg></g></svg></g><g></g></svg></g><defs></defs></svg><rect width="395.52" height="152.6086455469858" fill="none" stroke="none" visibility="hidden"></rect></g></svg></g></svg>